<svg xmlns="http://www.w3.org/2000/svg" width="256" height="256"><path fill-opacity=".016" d="M0 128.004v128.004l128.25-.254 128.25-.254.254-127.75L257.008 0H0v128.004m.485.496c0 70.4.119 99.053.265 63.672.146-35.38.146-92.98 0-128C.604 29.153.485 58.1.485 128.5" fill="#1976D2" fill-rule="evenodd"/><path fill-opacity=".167" d="M118.658.675c-.371.371-3.995.589-8.053.484-5.51-.142-7.514.162-7.912 1.199-.293.764-2.032 1.672-3.863 2.017-1.832.345-7.733 2.871-13.115 5.613-8.33 4.244-10.072 4.806-11.716 3.779-1.651-1.031-2.378-.778-5.006 1.74-4.075 3.903-7.547 10.272-9.61 17.626-1.046 3.728-1.976 5.525-2.457 4.747-1.286-2.08-3.469.551-5.939 7.155-1.839 4.916-2.103 6.99-1.493 11.719.407 3.16.665 9.239.573 13.508-.186 8.654.611 9.743 5.811 7.93C59.388 76.969 61 78.19 61 82.074c0 1.471.684 4.613 1.52 6.982 1.09 3.091 1.345 6.235.902 11.138-.764 8.454 1.692 20.573 4.977 24.562 1.454 1.765 3.251 6.918 5.039 14.448 2.741 11.546 2.851 11.775 8.169 17 5.733 5.631 13.702 10.774 16.716 10.788 1.16.005 1.706.612 1.5 1.666-.202 1.039-2.753 2.48-6.823 3.855-15.524 5.248-19.685 8.522-18.725 14.735.366 2.368-.107 4.067-1.742 6.252-4.59 6.134-6.709 11.497-6.066 15.35.436 2.609.029 4.848-1.428 7.852-2.249 4.634-2.609 8.328-.971 9.966.757.757.611 3.276-.5 8.658C62.705 239.5 62 245.591 62 248.861v5.946l5.25.375c12.881.92 136.34.814 137.75-.119 2.22-1.469 1.991-31.443-.33-43.063l-2.795-14c-2.614-13.101-7.016-19.954-15.439-24.031-4.306-2.084-4.436-2.284-4.438-6.808-.001-5.62-2.59-11.18-5.998-12.882-1.375-.687-4.412-1.256-6.75-1.264-2.338-.008-4.271-.128-4.297-.265-.026-.137-.306-3.777-.623-8.087l-.576-7.836 4.373-4.485c2.405-2.467 6.265-5.355 8.578-6.418 5.522-2.538 10.41-9.547 11.021-15.804.248-2.541 1.087-6.038 1.863-7.771.776-1.733 1.411-3.844 1.411-4.691 0-2.615 1.692-2.772 5.518-.515 4.617 2.724 5.609 1.598 5.313-6.032-.185-4.785.104-5.658 2.574-7.783 2.731-2.349 2.751-2.443 1.056-5.111-.949-1.494-2.953-3.712-4.452-4.929-1.987-1.612-2.9-3.475-3.365-6.869-.582-4.246-4.227-14.333-9.767-27.031-6.822-15.636-22.029-29.223-39.377-35.183-9.504-3.265-27.927-5.444-29.842-3.53" fill="#1976D2" fill-rule="evenodd"/><path fill-opacity=".244" d="M121 .821c-4.603.423-5.853 1.758-2.309 2.467 1.945.389 3.71 1.977 5.705 5.133 4.387 6.94 5.06 7.192 6.873 2.576 1.646-4.19 2.881-4.722 6.292-2.712 5.475 3.227 9.926 7.815 13.55 13.965 2.187 3.712 4.223 6.75 4.523 6.75.3 0 1.378-1.013 2.395-2.25l1.85-2.25 7.137 7c3.925 3.85 8.058 8.8 9.183 11 2.672 5.223 2.48 5.11 4.526 2.647 2.034-2.447 2.26-2.331 8.117 4.18 5.142 5.717 4.939 4.359-1.321-8.827-7.604-16.019-16.881-25.621-31.64-32.748C146.116 3.037 130.552-.056 121 .821M96.5 5.592C85.033 9.751 76 15.224 76 18.013c0 2.572 1.216 2.52 3.595-.154 2.98-3.35 9.384-5.813 15.174-5.837 5.241-.022 5.266-.007 4.627 2.728-1.194 5.118-4.877 10.648-9.037 13.568-3.787 2.659-4.878 2.909-12.779 2.932-4.752.013-8.887-.224-9.189-.526-.303-.303 1.041-2.238 2.987-4.301 1.946-2.063 3.304-4.128 3.018-4.591-.723-1.17-6.813 3.646-8.093 6.401-2.406 5.177-3.344 8.059-2.801 8.603.318.317.812-.322 1.099-1.42.403-1.539 1.443-2.033 4.549-2.156 3.243-.13 3.912.137 3.438 1.371-.323.843-.588 1.894-.588 2.337 0 .442-2.475 3.442-5.5 6.667-4.972 5.299-5.502 6.295-5.517 10.364-.018 4.866-5.107 15.228-6.428 13.09-.381-.617-1.134-.849-1.673-.516-.617.381-.55 1.123.183 2.005.639.77 1.535 1.169 1.991.887.456-.282 1.84 1.636 3.075 4.261 2.22 4.721 2.249 4.741 2.613 1.774.758-6.194 6.049-22.65 10.353-32.202 2.271-5.041 3.553-6.589 6.848-8.27C80.175 33.89 82 33.346 82 33.82c0 .473 1.857 1.473 4.127 2.222 3.916 1.292 4.222 1.245 5.981-.927l1.854-2.29 2.566 2.018c4.195 3.3 8.241 3.723 10.981 1.148l2.346-2.203 3.417 2.606c3.918 2.989 6.334 3.272 8.808 1.034 1.595-1.444 2.083-1.323 5.947 1.476 2.315 1.678 5.843 3.344 7.841 3.704 1.998.361 4.346 1.023 5.22 1.472.873.449 5.044 9.135 9.269 19.302l7.683 18.486-.492 12.066c-.428 10.499-.288 12.066 1.076 12.066 2.658 0 6.785-3.626 8.717-7.657 1.012-2.114 2.376-4.968 3.031-6.343.953-2 2.052-2.562 5.492-2.811 2.702-.196 5.196.275 6.712 1.269 2.564 1.68 5.424 7.409 5.424 10.864 0 3.131 1.783.78 2.497-3.292.335-1.908.811-3.671 1.058-3.918.247-.248-.299-1.277-1.214-2.288s-2.153-2.801-2.752-3.979c-.706-1.389-2.794-2.571-5.936-3.363-9.658-2.435-12.32-8.964-5.433-13.324 3.745-2.371 3.053-2.821-5.236-3.399-6.48-.452-13.601-3.737-18.049-8.326-3.581-3.695-3.292-4.839 1.756-6.948 4.569-1.909 7.219-1.884 7.971.075.867 2.26 10.049 6.455 15.629 7.14 3.475.427 5.328 1.272 6.75 3.079C187.553 65.972 187.537 68 185 68c-1.111 0-2 .667-2 1.5 0 .825.81 1.5 1.801 1.5 1.138 0 2.589 1.624 3.946 4.415 2.121 4.367 5.585 6.653 7.371 4.867.504-.504 1.328-2.349 1.83-4.099.718-2.505.612-3.183-.499-3.183-.776 0-1.692 1.122-2.037 2.493-.344 1.371-1.008 2.257-1.475 1.968-.467-.289-.66-1.073-.427-1.743.232-.67.002-2.793-.511-4.718l-.933-3.5.266 3.75c.305 4.29-.266 4.686-2.228 1.545-.979-1.568-1.048-2.314-.24-2.583 2.103-.701 1.159-3.825-2.42-8.007-1.956-2.284-4.103-6.044-4.772-8.354-1.533-5.295-3.814-6.417-3.438-1.69.146 1.837.703 3.652 1.238 4.035.558.4.269.966-.681 1.331-2.688 1.031-17.783-6.632-22.147-11.243-3.481-3.677-4.471-4.14-10.156-4.748-10.211-1.094-22.39-5.489-25.811-9.316-1.764-1.973-1.764-2.076 0-3.187 1.003-.632 1.373-1.359.823-1.616-10.419-4.862-16.181-10.696-18.576-18.808-1.493-5.057-1.638-5.116-7.424-3.017m40.515 8.158c.028 1.369 1.867 3.702 2.454 3.114.788-.788-.467-3.864-1.576-3.864-.491 0-.886.338-.878.75m-7.438 7a555.845 555.845 0 012.154 5.087c.371.903-.095 1.227-1.437 1-3.41-.578-2.623 1.61.958 2.663 1.87.55 4.889 2.259 6.708 3.798 6.389 5.405 15.142 8.692 17.636 6.623 2.005-1.664 1.905-9.921-.12-9.921-1.154 0-1.428.867-1.128 3.581.475 4.315-1.015 5.201-5.616 3.338-7.326-2.966-12.565-7.966-15.893-15.169-2.719-5.883-5.748-6.812-3.262-1m13.177 4.741c.263 1.38.877 2.509 1.363 2.509 1.366 0 1.043-2.623-.48-3.886-1.103-.916-1.272-.653-.883 1.377M161.149 32c-.005.825.332 2.37.749 3.434.571 1.458.954 1.615 1.558.638.44-.713.36-1.583-.178-1.934s-1.235-1.313-1.549-2.138c-.508-1.333-.572-1.333-.58 0M55.942 42.75c-1.302 1.524-1.315 2.299-.1 6 .784 2.387 2.026 4.25 2.836 4.25.792 0 1.163-.449.824-.997-.339-.549-.634-3.249-.655-6-.042-5.386-.574-5.982-2.905-3.253m-2.231 9.249c-.288 1.099-.115 2.251.383 2.559.498.308.906-.592.906-1.999 0-3.064-.57-3.312-1.289-.56M186.71 52c.288 1.1.879 2 1.313 2 .434 0 .554-.9.267-2-.288-1.1-.879-2-1.313-2-.434 0-.554.9-.267 2M54.158 59c0 1.375.227 1.938.504 1.25.278-.687.278-1.812 0-2.5-.277-.687-.504-.125-.504 1.25m135.175-.456c0 .801.375 1.456.834 1.456.458 0 .833-.423.833-.941s-.375-1.173-.833-1.456c-.459-.283-.834.14-.834.941m-31.118.817c.943.72 3.643 1.345 6 1.389 4.145.078 4.187.048 1.285-.908-1.65-.543-4.35-1.168-6-1.389-2.646-.353-2.797-.246-1.285.908M169.5 62c.34.55 1.491 1 2.559 1S174 62.55 174 62s-1.152-1-2.559-1c-1.451 0-2.292.433-1.941 1m7.5 1c0 .55.45 1 1 1s1-.45 1-1-.45-1-1-1-1 .45-1 1M53.872 74.75c-1.243 1.586-1.208 1.621.378.378C55.916 73.821 56.445 73 55.622 73c-.207 0-.995.787-1.75 1.75m65.874 3.417C115.031 79.176 106 83.697 106 85.048c0 2.157 2.944 1.95 8.605-.605 5.705-2.574 10.053-3.111 15.515-1.915 2.058.451 2.733.141 3.147-1.442.369-1.411-.062-2.204-1.435-2.639-3.22-1.022-8.091-1.135-12.086-.28M182.5 78c2.749 1.181 4.328 1.181 2.5 0-.825-.533-2.175-.945-3-.914-.989.036-.819.347.5.914M72.38 79.452c-.929 2.422.481 3.445 3.968 2.879 2.379-.386 4.767.2 8.482 2.083 2.843 1.441 5.17 3.062 5.17 3.603 0 1.28-1.705 1.269-2.5-.017-1.961-3.173-14.154 1.132-12.848 4.536C75.282 94.177 78 94.554 78 93c0-1.751 1.842-1.074 2.471.908.864 2.724 3.431 3.386 6.17 1.592 2.173-1.425 2.356-1.407 2.324.227-.054 2.727-2.625 13.265-4.429 18.155-2.939 7.964-.158 15.118 5.876 15.118 6.505 0 16.787-4.165 18.432-7.467l1.344-2.698 4.098 5.583c3.682 5.015 6.714 7.125 6.714 4.672 0-2.975-15.057-18.419-15.796-16.203-.216.649.15 1.834.813 2.634.664.799.939 2.518.612 3.821-1.086 4.326-16.29 8.597-19.429 5.458-1.713-1.713-1.49-5.001.799-11.796 1.099-3.262 2.467-8.986 3.04-12.718a986.459 986.459 0 011.842-11.53l.8-4.745-6.169-3.005c-6.802-3.314-14.166-4.07-15.132-1.554m120.37 5.276c-2.062.216-3.75.764-3.75 1.219 0 1.256 6.263 1.938 8.25.898 2.011-1.052 2.361-2.927.5-2.677-.687.093-2.937.345-5 .56m-80 3.387c-4.547 3.393-3.334 6.297 1.566 3.75 1.201-.625 1.862-.791 1.469-.369-.393.422-.265 1.608.285 2.635 1.451 2.711 7.49 2.559 8.98-.225.728-1.359 1.78-1.922 2.999-1.603 2.435.636 4.48-1.643 2.713-3.025-4.566-3.573-13.968-4.18-18.012-1.163M197 94c0 .55.45 1 1 1s1-.45 1-1-.45-1-1-1-1 .45-1 1m-33 37.721c0 3.201.16 3.401 1.75 2.182 2.153-1.652 5.25-4.697 5.25-5.163 0-.189-1.575-.388-3.5-.443-3.357-.095-3.5.045-3.5 3.424m-75.498 5.275c-1.417 2.294 1.185 2.843 13.934 2.941 12.925.099 15.965-.53 13.29-2.749-1.639-1.361-26.394-1.535-27.224-.192M149.12 142c-1.236 2.2-2.562 4-2.947 4-.384 0-1.143 1.008-1.686 2.24-2.007 4.553-13.175 11.568-23.376 14.682-5.286 1.614-11.298 3.212-13.361 3.551-5.244.863-5.112 3.527.174 3.527 5.231 0 23.065-6.143 29.125-10.031 9.794-6.286 20.557-21.969 15.076-21.969-.416 0-1.768 1.8-3.005 4M165 156.728c0 3.525-.45 4.302-3.75 6.468-3.175 2.084-13.555 7.038-25.75 12.29-1.65.71-7.562 2.771-13.139 4.579l-10.139 3.287-5.361-2.031c-5.188-1.966-5.371-2.165-5.668-6.176-.371-4.992-1.038-5.1-10.115-1.631-19.384 7.409-20.522 10.394-10.721 28.12l4.335 7.841-1.979 4.762c-1.089 2.62-2.397 4.763-2.906 4.763-.51 0-3.245-1.768-6.078-3.928-2.833-2.161-5.477-3.727-5.876-3.481-1.39.859-4.908 11.659-4.361 13.385.513 1.616 3.049 2.979 11.263 6.053l3.255 1.218-.255 11.126L77.5 254.5l3.75.31c2.842.236 3.75-.062 3.75-1.227 0-2.389 4.222-4.587 10.124-5.268 2.957-.341 5.664-1.061 6.016-1.6.353-.539 2.15-.692 4-.34 3.244.616 5.86 3.886 5.86 7.324 0 .972 2.288 1.301 9.048 1.301h9.049l1.236-2.942c1.414-3.361 4.341-2.756 3.252.673-.581 1.83-.04 2.019 7.143 2.498 4.275.285 20.237.463 35.472.395 20.591-.092 28.019-.443 28.942-1.366 1.758-1.758 1.935-21.224.315-34.683-.723-6.009-2.533-15.837-4.023-21.839-3.388-13.657-6.831-19.177-14.18-22.736-4.883-2.364-5.166-2.711-5.209-6.384-.066-5.718-2.118-11.618-4.607-13.248-1.202-.788-4.492-1.705-7.312-2.039l-5.126-.608v4.007m-79.075 59.554c-.866.67-2.316 2.356-3.221 3.748-1.464 2.251-1.485 2.838-.187 5.339 1.031 1.988 1.169 3.349.471 4.653-2.937 5.489-2.986 6.827-.362 9.945 2.814 3.345 5.781 3.837 9.101 1.511 2.118-1.483 2.509-5.669.79-8.45-.371-.6.415-1.028 1.889-1.028 3.223 0 5.321-3.419 3.468-5.652-1.112-1.34-1.358-1.271-2.037.564-.551 1.488-1.643 2.088-3.805 2.088-2.588 0-3.032.376-3.032 2.566 0 1.411.419 3.348.93 4.304 2.081 3.887-2.956 5.646-5.323 1.858-.871-1.395-.619-2.624 1.186-5.773 2.243-3.913 2.254-4.068.5-7.056-1.79-3.05-1.788-3.059 1.015-5.479 3.676-3.173 2.401-6.065-1.383-3.138m15.775 18.446c-.821 4.203 1.28 7.519 5.858 9.244 2.232.84 5.407 3.047 7.056 4.903 1.996 2.247 3.894 3.375 5.677 3.375 2.883 0 7.709-2.675 7.709-4.273 0-1.284-3.704-1.265-4.5.023-1.315 2.127-5.375 1.02-7.125-1.942-1.071-1.814-3.586-3.71-6.556-4.945-3.889-1.616-4.819-2.471-4.819-4.435 0-1.338-.621-2.948-1.379-3.578-1.105-.917-1.487-.593-1.921 1.628m.649 15.323c-.578.578-2.13 1.088-3.45 1.133-4.016.139-9.899 1.835-9.899 2.855 0 .544 3.907.961 9 .961 8.826 0 9-.046 9-2.393 0-1.316-.712-2.666-1.582-3-2.002-.768-1.832-.793-3.069.444" fill="#1976D2" fill-rule="evenodd"/><path fill-opacity=".677" d="M115.16 87.329c-3.595 1.336-5.861 4.12-4.193 5.151.545.337 1.901.126 3.012-.469 1.604-.858 2.021-.777 2.021.395 0 1.752 1.161 2.574 4.484 3.177 1.805.327 2.885-.216 4.093-2.061 1.257-1.918 2.202-2.365 4.032-1.905 3.414.857 3.125-1.813-.359-3.311-4.478-1.925-9.525-2.302-13.09-.977m-37.41 1.429c-2.754 1.708-3.526 3.644-1.863 4.672.487.301 1.442-.122 2.122-.941 1.746-2.103 2.801-1.85 3.171.761.453 3.184 5.088 3.633 7.148.692 1.871-2.672 1.322-4.325-1.93-5.807-3.378-1.539-5.395-1.393-8.648.623M89 137.944c0 .757 25.535 2.062 26.85 1.373.193-.101.054-.664-.309-1.25-.836-1.353-26.541-1.471-26.541-.123m76.894 16.806c-.058.412-.059 1.875-.002 3.25.077 1.83-.905 3.19-3.66 5.074-5.936 4.059-25.242 12.576-38.694 17.07l-12.301 4.11-5.368-2.877c-4.869-2.609-5.398-3.226-5.679-6.627-.171-2.062-.396-3.747-.5-3.743-1.328.049-15.22 5.299-18.372 6.943-5.379 2.805-6.641 4.401-6.531 8.258.138 4.849 9.342 21.808 17.886 32.954 9.476 12.363 16.533 18.181 31.049 25.601 6.173 3.156 13.148 6.723 15.5 7.928 4.119 2.109 5.417 2.193 34.911 2.25l30.634.059.603-2.25c.939-3.505.72-23.33-.361-32.75-1.107-9.642-5.562-29.993-7.553-34.5-1.733-3.926-6.898-8.755-12.206-11.413-4.155-2.08-4.25-2.241-4.25-7.157 0-5.545-1.982-10.315-4.945-11.9-2.214-1.185-10.003-1.4-10.161-.28m-77.499 31.68c-7.512 3.27-4.611 14.903 3.717 14.903 4.026 0 6.836-3.518 6.866-8.598.019-3.185-.478-4.069-3.228-5.746-3.798-2.315-3.391-2.284-7.355-.559m-18.051 35.5c-1.85 5.086-1.945 6.009-.668 6.499.818.314 1.624.571 1.791.571.789 0 3.589-10.412 3.125-11.622-.987-2.57-2.086-1.392-4.248 4.552" fill="#1976D2" fill-rule="evenodd"/></svg>